<?xml version="1.0" encoding="UTF-8" standalone="no"?>
<!DOCTYPE svg PUBLIC "-//W3C//DTD SVG 1.1//EN" "http://www.w3.org/Graphics/SVG/1.1/DTD/svg11.dtd">
<svg version="1.1" xmlns="http://www.w3.org/2000/svg" xmlns:xlink="http://www.w3.org/1999/xlink" preserveAspectRatio="xMidYMid meet" viewBox="357.72 151.68929763186347 77.77999999999997 71.86070236813654" width="72.78" height="67.86"><defs><path d="M369.5 190.91C369.5 205.33 381.19 217.02 395.61 217.02C410.03 217.02 421.72 205.33 421.72 190.91C421.72 176.49 410.03 164.8 395.61 164.8C381.19 164.8 369.5 176.49 369.5 190.91" id="e3bQzNH8z"></path><path d="M369.5 190.91C369.5 205.33 381.19 217.02 395.61 217.02C410.03 217.02 421.72 205.33 421.72 190.91C421.72 176.49 410.03 164.8 395.61 164.8C381.19 164.8 369.5 176.49 369.5 190.91" id="bfnQdicQu"></path><path d="M372.18 187.2C372.18 201.62 383.87 213.31 398.29 213.31C412.71 213.31 424.4 201.62 424.4 187.2C424.4 172.78 412.71 161.09 398.29 161.09C383.87 161.09 372.18 172.78 372.18 187.2" id="a6eVfOnTWa"></path><path d="M372.18 187.2C372.18 201.62 383.87 213.31 398.29 213.31C412.71 213.31 424.4 201.62 424.4 187.2C424.4 172.78 412.71 161.09 398.29 161.09C383.87 161.09 372.18 172.78 372.18 187.2" id="dpcbaP9uq"></path><path d="M399.53 218.59C399.92 218.34 400.23 217.96 400.39 217.49C406.07 200.24 396.25 194.12 389.08 189.65C385.89 187.67 382.87 185.79 381.62 183.37C380.13 180.48 380.61 177.77 382.92 176.12C385.25 174.48 389.05 174.32 391.84 177.25C398.62 184.35 409.41 189.64 409.87 189.86C410.89 190.36 412.12 189.93 412.61 188.91C413.11 187.89 412.68 186.67 411.66 186.17C411.56 186.12 401.07 180.98 394.81 174.42C390.41 169.8 384.29 170.09 380.54 172.78C376.54 175.63 375.54 180.53 377.98 185.26C379.74 188.68 383.22 190.84 386.91 193.14C394.24 197.71 401.17 202.02 396.49 216.21C396.14 217.28 396.72 218.44 397.8 218.8C398.4 219 399.03 218.9 399.53 218.59" id="a3jX4xdRi6"></path><path d="M399.53 218.59C399.92 218.34 400.23 217.96 400.39 217.49C406.07 200.24 396.25 194.12 389.08 189.65C385.89 187.67 382.87 185.79 381.62 183.37C380.13 180.48 380.61 177.77 382.92 176.12C385.25 174.48 389.05 174.32 391.84 177.25C398.62 184.35 409.41 189.64 409.87 189.86C410.89 190.36 412.12 189.93 412.61 188.91C413.11 187.89 412.68 186.67 411.66 186.17C411.56 186.12 401.07 180.98 394.81 174.42C390.41 169.8 384.29 170.09 380.54 172.78C376.54 175.63 375.54 180.53 377.98 185.26C379.74 188.68 383.22 190.84 386.91 193.14C394.24 197.71 401.17 202.02 396.49 216.21C396.14 217.28 396.72 218.44 397.8 218.8C398.4 219 399.03 218.9 399.53 218.59" id="gj8ZcDTHr"></path><path d="M399.53 218.59C399.92 218.34 400.23 217.96 400.39 217.49C406.07 200.24 396.25 194.12 389.08 189.65C385.89 187.67 382.87 185.79 381.62 183.37C380.13 180.48 380.61 177.77 382.92 176.12C385.25 174.48 389.05 174.32 391.84 177.25C398.62 184.35 409.41 189.64 409.87 189.86C410.89 190.36 412.12 189.93 412.61 188.91C413.11 187.89 412.68 186.67 411.66 186.17C411.56 186.12 401.07 180.98 394.81 174.42C390.41 169.8 384.29 170.09 380.54 172.78C376.54 175.63 375.54 180.53 377.98 185.26C379.74 188.68 383.22 190.84 386.91 193.14C394.24 197.71 401.17 202.02 396.49 216.21C396.14 217.28 396.72 218.44 397.8 218.8C398.4 219 399.03 218.9 399.53 218.59" id="ahoeW6wu"></path><path d="M399.53 218.59C399.92 218.34 400.23 217.96 400.39 217.49C406.07 200.24 396.25 194.12 389.08 189.65C385.89 187.67 382.87 185.79 381.62 183.37C380.13 180.48 380.61 177.77 382.92 176.12C385.25 174.48 389.05 174.32 391.84 177.25C398.62 184.35 409.41 189.64 409.87 189.86C410.89 190.36 412.12 189.93 412.61 188.91C413.11 187.89 412.68 186.67 411.66 186.17C411.56 186.12 401.07 180.98 394.81 174.42C390.41 169.8 384.29 170.09 380.54 172.78C376.54 175.63 375.54 180.53 377.98 185.26C379.74 188.68 383.22 190.84 386.91 193.14C394.24 197.71 401.17 202.02 396.49 216.21C396.14 217.28 396.72 218.44 397.8 218.8C398.4 219 399.03 218.9 399.53 218.59" id="c51tTuWeFT"></path><path d="M391.17 165.55C393.63 169.49 398.82 170.67 402.75 168.21C406.68 165.74 407.87 160.56 405.41 156.63C402.94 152.7 397.76 151.51 393.82 153.97C389.89 156.44 388.7 161.62 391.17 165.55" id="afdapi6CX"></path><path d="M391.17 165.55C393.63 169.49 398.82 170.67 402.75 168.21C406.68 165.74 407.87 160.56 405.41 156.63C402.94 152.7 397.76 151.51 393.82 153.97C389.89 156.44 388.7 161.62 391.17 165.55" id="b6fhSvioy2"></path><path d="M391.17 165.55C393.63 169.49 398.82 170.67 402.75 168.21C406.68 165.74 407.87 160.56 405.41 156.63C402.94 152.7 397.76 151.51 393.82 153.97C389.89 156.44 388.7 161.62 391.17 165.55" id="amnFzT7ID"></path><path d="M391.17 165.55C393.63 169.49 398.82 170.67 402.75 168.21C406.68 165.74 407.87 160.56 405.41 156.63C402.94 152.7 397.76 151.51 393.82 153.97C389.89 156.44 388.7 161.62 391.17 165.55" id="aQsvworb2"></path><path d="M432.5 208.2C432.5 201.38 426.96 195.84 420.14 195.84C413.32 195.84 407.79 201.38 407.79 208.2C407.79 215.01 413.32 220.55 420.14 220.55C426.96 220.55 432.5 215.01 432.5 208.2Z" id="c1mfzQRjKW"></path><path d="M432.5 208.2C432.5 201.38 426.96 195.84 420.14 195.84C413.32 195.84 407.79 201.38 407.79 208.2C407.79 215.01 413.32 220.55 420.14 220.55C426.96 220.55 432.5 215.01 432.5 208.2Z" id="geCn8syyo"></path><path d="M384.43 208.2C384.43 201.38 378.9 195.84 372.08 195.84C365.26 195.84 359.72 201.38 359.72 208.2C359.72 215.01 365.26 220.55 372.08 220.55C378.9 220.55 384.43 215.01 384.43 208.2Z" id="a23O1ghv4X"></path><path d="M384.43 208.2C384.43 201.38 378.9 195.84 372.08 195.84C365.26 195.84 359.72 201.38 359.72 208.2C359.72 215.01 365.26 220.55 372.08 220.55C378.9 220.55 384.43 215.01 384.43 208.2Z" id="b4sQXEw7z"></path></defs><g><g><use xlink:href="#e3bQzNH8z" opacity="1" fill="#f9b285" fill-opacity="1"></use><g><use xlink:href="#e3bQzNH8z" opacity="1" fill-opacity="0" stroke="#000000" stroke-width="1" stroke-opacity="0"></use></g></g><g><use xlink:href="#bfnQdicQu" opacity="1" fill="#000000" fill-opacity="0"></use><g><use xlink:href="#bfnQdicQu" opacity="1" fill-opacity="0" stroke="#000000" stroke-width="1" stroke-opacity="0"></use></g></g><g><use xlink:href="#a6eVfOnTWa" opacity="1" fill="#000000" fill-opacity="0"></use><g><use xlink:href="#a6eVfOnTWa" opacity="1" fill-opacity="0" stroke="#000000" stroke-width="1" stroke-opacity="0"></use></g></g><g><use xlink:href="#dpcbaP9uq" opacity="1" fill="#000000" fill-opacity="0"></use><g><use xlink:href="#dpcbaP9uq" opacity="1" fill-opacity="0" stroke="#000000" stroke-width="1" stroke-opacity="0"></use></g></g><g><use xlink:href="#a3jX4xdRi6" opacity="1" fill="#454547" fill-opacity="1"></use><g><use xlink:href="#a3jX4xdRi6" opacity="1" fill-opacity="0" stroke="#000000" stroke-width="1" stroke-opacity="0"></use></g></g><g><use xlink:href="#gj8ZcDTHr" opacity="1" fill="#000000" fill-opacity="0"></use><g><use xlink:href="#gj8ZcDTHr" opacity="1" fill-opacity="0" stroke="#000000" stroke-width="1" stroke-opacity="0"></use></g></g><g><use xlink:href="#ahoeW6wu" opacity="1" fill="#000000" fill-opacity="0"></use><g><use xlink:href="#ahoeW6wu" opacity="1" fill-opacity="0" stroke="#000000" stroke-width="1" stroke-opacity="0"></use></g></g><g><use xlink:href="#c51tTuWeFT" opacity="1" fill="#000000" fill-opacity="0"></use><g><use xlink:href="#c51tTuWeFT" opacity="1" fill-opacity="0" stroke="#000000" stroke-width="1" stroke-opacity="0"></use></g></g><g><use xlink:href="#afdapi6CX" opacity="1" fill="#454547" fill-opacity="1"></use><g><use xlink:href="#afdapi6CX" opacity="1" fill-opacity="0" stroke="#000000" stroke-width="1" stroke-opacity="0"></use></g></g><g><use xlink:href="#b6fhSvioy2" opacity="1" fill="#000000" fill-opacity="0"></use><g><use xlink:href="#b6fhSvioy2" opacity="1" fill-opacity="0" stroke="#000000" stroke-width="1" stroke-opacity="0"></use></g></g><g><use xlink:href="#amnFzT7ID" opacity="1" fill="#000000" fill-opacity="0"></use><g><use xlink:href="#amnFzT7ID" opacity="1" fill-opacity="0" stroke="#000000" stroke-width="1" stroke-opacity="0"></use></g></g><g><use xlink:href="#aQsvworb2" opacity="1" fill="#000000" fill-opacity="0"></use><g><use xlink:href="#aQsvworb2" opacity="1" fill-opacity="0" stroke="#000000" stroke-width="1" stroke-opacity="0"></use></g></g><g><use xlink:href="#c1mfzQRjKW" opacity="1" fill="#000000" fill-opacity="0"></use><g><use xlink:href="#c1mfzQRjKW" opacity="1" fill-opacity="0" stroke="#000000" stroke-width="1" stroke-opacity="0"></use></g></g><g><use xlink:href="#geCn8syyo" opacity="1" fill="#000000" fill-opacity="0"></use><g><use xlink:href="#geCn8syyo" opacity="1" fill-opacity="0" stroke="#454547" stroke-width="4" stroke-opacity="1"></use></g></g><g><use xlink:href="#a23O1ghv4X" opacity="1" fill="#000000" fill-opacity="0"></use><g><use xlink:href="#a23O1ghv4X" opacity="1" fill-opacity="0" stroke="#000000" stroke-width="1" stroke-opacity="0"></use></g></g><g><use xlink:href="#b4sQXEw7z" opacity="1" fill="#000000" fill-opacity="0"></use><g><use xlink:href="#b4sQXEw7z" opacity="1" fill-opacity="0" stroke="#454547" stroke-width="4" stroke-opacity="1"></use></g></g></g></svg>