<?xml version="1.0" encoding="UTF-8" standalone="no"?>
<!DOCTYPE svg PUBLIC "-//W3C//DTD SVG 1.1//EN" "http://www.w3.org/Graphics/SVG/1.1/DTD/svg11.dtd">
<svg version="1.1" xmlns="http://www.w3.org/2000/svg" xmlns:xlink="http://www.w3.org/1999/xlink" preserveAspectRatio="xMidYMid meet" viewBox="96.08536358670166 68.66 75.65863930378391 65.39000000000004" width="71.66" height="61.39"><defs><path d="M107.68 97.11C107.68 111.54 119.37 123.22 133.79 123.22C148.21 123.22 159.9 111.54 159.9 97.11C159.9 82.69 148.21 71 133.79 71C119.37 71 107.68 82.69 107.68 97.11" id="a24bH1U3rE"></path><path d="M107.68 97.11C107.68 111.54 119.37 123.22 133.79 123.22C148.21 123.22 159.9 111.54 159.9 97.11C159.9 82.69 148.21 71 133.79 71C119.37 71 107.68 82.69 107.68 97.11" id="aVqZVJ2EJ"></path><path d="M107.68 97.11C107.68 111.54 119.37 123.22 133.79 123.22C148.21 123.22 159.9 111.54 159.9 97.11C159.9 82.69 148.21 71 133.79 71C119.37 71 107.68 82.69 107.68 97.11" id="a8M9RmtX"></path><path d="M107.68 97.11C107.68 111.54 119.37 123.22 133.79 123.22C148.21 123.22 159.9 111.54 159.9 97.11C159.9 82.69 148.21 71 133.79 71C119.37 71 107.68 82.69 107.68 97.11" id="cW821k0Eu"></path><path d="M159.53 99.34C165.21 99.34 168.27 95.48 168.32 95.43C169.01 94.53 168.84 93.24 167.94 92.55C167.05 91.86 165.77 92.02 165.07 92.91C164.62 93.48 160.45 98.17 151.93 92.47C149.42 90.79 146.78 88.36 143.98 85.79C137.99 80.29 131.81 74.61 125.57 75.46C122.38 75.91 119.58 78.05 117.26 81.82C116.66 82.79 116.96 84.05 117.93 84.64C118.9 85.24 120.16 84.94 120.75 83.97C122.43 81.25 124.19 79.8 126.13 79.53C130.45 78.94 135.92 83.95 141.21 88.81C143.99 91.37 146.87 94.02 149.65 95.88C153.51 98.46 156.82 99.34 159.53 99.34" id="i5xT303Qzu"></path><path d="M159.53 99.34C165.21 99.34 168.27 95.48 168.32 95.43C169.01 94.53 168.84 93.24 167.94 92.55C167.05 91.86 165.77 92.02 165.07 92.91C164.62 93.48 160.45 98.17 151.93 92.47C149.42 90.79 146.78 88.36 143.98 85.79C137.99 80.29 131.81 74.61 125.57 75.46C122.38 75.91 119.58 78.05 117.26 81.82C116.66 82.79 116.96 84.05 117.93 84.64C118.9 85.24 120.16 84.94 120.75 83.97C122.43 81.25 124.19 79.8 126.13 79.53C130.45 78.94 135.92 83.95 141.21 88.81C143.99 91.37 146.87 94.02 149.65 95.88C153.51 98.46 156.82 99.34 159.53 99.34" id="b1jllf6hLw"></path><path d="M159.53 99.34C165.21 99.34 168.27 95.48 168.32 95.43C169.01 94.53 168.84 93.24 167.94 92.55C167.05 91.86 165.77 92.02 165.07 92.91C164.62 93.48 160.45 98.17 151.93 92.47C149.42 90.79 146.78 88.36 143.98 85.79C137.99 80.29 131.81 74.61 125.57 75.46C122.38 75.91 119.58 78.05 117.26 81.82C116.66 82.79 116.96 84.05 117.93 84.64C118.9 85.24 120.16 84.94 120.75 83.97C122.43 81.25 124.19 79.8 126.13 79.53C130.45 78.94 135.92 83.95 141.21 88.81C143.99 91.37 146.87 94.02 149.65 95.88C153.51 98.46 156.82 99.34 159.53 99.34" id="b8DNpETQc"></path><path d="M159.53 99.34C165.21 99.34 168.27 95.48 168.32 95.43C169.01 94.53 168.84 93.24 167.94 92.55C167.05 91.86 165.77 92.02 165.07 92.91C164.62 93.48 160.45 98.17 151.93 92.47C149.42 90.79 146.78 88.36 143.98 85.79C137.99 80.29 131.81 74.61 125.57 75.46C122.38 75.91 119.58 78.05 117.26 81.82C116.66 82.79 116.96 84.05 117.93 84.64C118.9 85.24 120.16 84.94 120.75 83.97C122.43 81.25 124.19 79.8 126.13 79.53C130.45 78.94 135.92 83.95 141.21 88.81C143.99 91.37 146.87 94.02 149.65 95.88C153.51 98.46 156.82 99.34 159.53 99.34" id="d2Z56448l3"></path><path d="M99.13 121.67C99.32 121.67 99.5 121.64 99.69 121.59C109.48 118.87 116.62 112.12 120.91 101.55C124.04 93.82 137.89 90.15 142.96 89.39C144.08 89.22 144.86 88.18 144.69 87.06C144.52 85.93 143.48 85.16 142.35 85.33C141.51 85.46 121.75 88.55 117.1 100.01C113.27 109.47 107.21 115.24 98.59 117.64C97.49 117.94 96.86 119.07 97.16 120.17C97.41 121.07 98.24 121.67 99.13 121.67" id="eTEqiBCcF"></path><path d="M99.13 121.67C99.32 121.67 99.5 121.64 99.69 121.59C109.48 118.87 116.62 112.12 120.91 101.55C124.04 93.82 137.89 90.15 142.96 89.39C144.08 89.22 144.86 88.18 144.69 87.06C144.52 85.93 143.48 85.16 142.35 85.33C141.51 85.46 121.75 88.55 117.1 100.01C113.27 109.47 107.21 115.24 98.59 117.64C97.49 117.94 96.86 119.07 97.16 120.17C97.41 121.07 98.24 121.67 99.13 121.67" id="b7yRGTjBuO"></path><path d="M99.13 121.67C99.32 121.67 99.5 121.64 99.69 121.59C109.48 118.87 116.62 112.12 120.91 101.55C124.04 93.82 137.89 90.15 142.96 89.39C144.08 89.22 144.86 88.18 144.69 87.06C144.52 85.93 143.48 85.16 142.35 85.33C141.51 85.46 121.75 88.55 117.1 100.01C113.27 109.47 107.21 115.24 98.59 117.64C97.49 117.94 96.86 119.07 97.16 120.17C97.41 121.07 98.24 121.67 99.13 121.67" id="cM0wTLidy"></path><path d="M99.13 121.67C99.32 121.67 99.5 121.64 99.69 121.59C109.48 118.87 116.62 112.12 120.91 101.55C124.04 93.82 137.89 90.15 142.96 89.39C144.08 89.22 144.86 88.18 144.69 87.06C144.52 85.93 143.48 85.16 142.35 85.33C141.51 85.46 121.75 88.55 117.1 100.01C113.27 109.47 107.21 115.24 98.59 117.64C97.49 117.94 96.86 119.07 97.16 120.17C97.41 121.07 98.24 121.67 99.13 121.67" id="awccTDiFn"></path><path d="M123.26 131.05C123.66 131.05 124.07 130.94 124.42 130.69C128.41 127.96 141.32 118.5 140.04 111.75C138.78 105.16 124.68 97.31 121.87 95.8C120.87 95.26 119.62 95.64 119.09 96.64C118.55 97.64 118.93 98.88 119.93 99.42C126.21 102.78 135.35 109.07 136.01 112.52C136.53 115.29 129.24 122.41 122.1 127.31C121.17 127.95 120.93 129.23 121.57 130.16C121.97 130.74 122.61 131.05 123.26 131.05" id="b11Zrh09WC"></path><path d="M123.26 131.05C123.66 131.05 124.07 130.94 124.42 130.69C128.41 127.96 141.32 118.5 140.04 111.75C138.78 105.16 124.68 97.31 121.87 95.8C120.87 95.26 119.62 95.64 119.09 96.64C118.55 97.64 118.93 98.88 119.93 99.42C126.21 102.78 135.35 109.07 136.01 112.52C136.53 115.29 129.24 122.41 122.1 127.31C121.17 127.95 120.93 129.23 121.57 130.16C121.97 130.74 122.61 131.05 123.26 131.05" id="b5iAy2sDq"></path><path d="M123.26 131.05C123.66 131.05 124.07 130.94 124.42 130.69C128.41 127.96 141.32 118.5 140.04 111.75C138.78 105.16 124.68 97.31 121.87 95.8C120.87 95.26 119.62 95.64 119.09 96.64C118.55 97.64 118.93 98.88 119.93 99.42C126.21 102.78 135.35 109.07 136.01 112.52C136.53 115.29 129.24 122.41 122.1 127.31C121.17 127.95 120.93 129.23 121.57 130.16C121.97 130.74 122.61 131.05 123.26 131.05" id="a1KWPQ11Aj"></path><path d="M123.26 131.05C123.66 131.05 124.07 130.94 124.42 130.69C128.41 127.96 141.32 118.5 140.04 111.75C138.78 105.16 124.68 97.31 121.87 95.8C120.87 95.26 119.62 95.64 119.09 96.64C118.55 97.64 118.93 98.88 119.93 99.42C126.21 102.78 135.35 109.07 136.01 112.52C136.53 115.29 129.24 122.41 122.1 127.31C121.17 127.95 120.93 129.23 121.57 130.16C121.97 130.74 122.61 131.05 123.26 131.05" id="a19L6cevi3"></path><path d="M143.38 77.43C143.38 81.71 146.86 85.19 151.15 85.19C155.43 85.19 158.91 81.71 158.91 77.43C158.91 73.14 155.43 69.66 151.15 69.66C146.86 69.66 143.38 73.14 143.38 77.43" id="bfXPTeuT5"></path><path d="M143.38 77.43C143.38 81.71 146.86 85.19 151.15 85.19C155.43 85.19 158.91 81.71 158.91 77.43C158.91 73.14 155.43 69.66 151.15 69.66C146.86 69.66 143.38 73.14 143.38 77.43" id="i2SnDOPYgb"></path><path d="M143.38 77.43C143.38 81.71 146.86 85.19 151.15 85.19C155.43 85.19 158.91 81.71 158.91 77.43C158.91 73.14 155.43 69.66 151.15 69.66C146.86 69.66 143.38 73.14 143.38 77.43" id="b6Z5THgnWy"></path><path d="M143.38 77.43C143.38 81.71 146.86 85.19 151.15 85.19C155.43 85.19 158.91 81.71 158.91 77.43C158.91 73.14 155.43 69.66 151.15 69.66C146.86 69.66 143.38 73.14 143.38 77.43" id="cfNuXuArF"></path></defs><g><g><use xlink:href="#a24bH1U3rE" opacity="1" fill="#f2746d" fill-opacity="1"></use><g><use xlink:href="#a24bH1U3rE" opacity="1" fill-opacity="0" stroke="#000000" stroke-width="1" stroke-opacity="0"></use></g></g><g><use xlink:href="#aVqZVJ2EJ" opacity="1" fill="#000000" fill-opacity="0"></use><g><use xlink:href="#aVqZVJ2EJ" opacity="1" fill-opacity="0" stroke="#000000" stroke-width="1" stroke-opacity="0"></use></g></g><g><use xlink:href="#a8M9RmtX" opacity="1" fill="#000000" fill-opacity="0"></use><g><use xlink:href="#a8M9RmtX" opacity="1" fill-opacity="0" stroke="#000000" stroke-width="1" stroke-opacity="0"></use></g></g><g><use xlink:href="#cW821k0Eu" opacity="1" fill="#000000" fill-opacity="0"></use><g><use xlink:href="#cW821k0Eu" opacity="1" fill-opacity="0" stroke="#000000" stroke-width="1" stroke-opacity="0"></use></g></g><g><use xlink:href="#i5xT303Qzu" opacity="1" fill="#454547" fill-opacity="1"></use><g><use xlink:href="#i5xT303Qzu" opacity="1" fill-opacity="0" stroke="#000000" stroke-width="1" stroke-opacity="0"></use></g></g><g><use xlink:href="#b1jllf6hLw" opacity="1" fill="#000000" fill-opacity="0"></use><g><use xlink:href="#b1jllf6hLw" opacity="1" fill-opacity="0" stroke="#000000" stroke-width="1" stroke-opacity="0"></use></g></g><g><use xlink:href="#b8DNpETQc" opacity="1" fill="#000000" fill-opacity="0"></use><g><use xlink:href="#b8DNpETQc" opacity="1" fill-opacity="0" stroke="#000000" stroke-width="1" stroke-opacity="0"></use></g></g><g><use xlink:href="#d2Z56448l3" opacity="1" fill="#000000" fill-opacity="0"></use><g><use xlink:href="#d2Z56448l3" opacity="1" fill-opacity="0" stroke="#000000" stroke-width="1" stroke-opacity="0"></use></g></g><g><use xlink:href="#eTEqiBCcF" opacity="1" fill="#454547" fill-opacity="1"></use><g><use xlink:href="#eTEqiBCcF" opacity="1" fill-opacity="0" stroke="#000000" stroke-width="1" stroke-opacity="0"></use></g></g><g><use xlink:href="#b7yRGTjBuO" opacity="1" fill="#000000" fill-opacity="0"></use><g><use xlink:href="#b7yRGTjBuO" opacity="1" fill-opacity="0" stroke="#000000" stroke-width="1" stroke-opacity="0"></use></g></g><g><use xlink:href="#cM0wTLidy" opacity="1" fill="#000000" fill-opacity="0"></use><g><use xlink:href="#cM0wTLidy" opacity="1" fill-opacity="0" stroke="#000000" stroke-width="1" stroke-opacity="0"></use></g></g><g><use xlink:href="#awccTDiFn" opacity="1" fill="#000000" fill-opacity="0"></use><g><use xlink:href="#awccTDiFn" opacity="1" fill-opacity="0" stroke="#000000" stroke-width="1" stroke-opacity="0"></use></g></g><g><use xlink:href="#b11Zrh09WC" opacity="1" fill="#454547" fill-opacity="1"></use><g><use xlink:href="#b11Zrh09WC" opacity="1" fill-opacity="0" stroke="#000000" stroke-width="1" stroke-opacity="0"></use></g></g><g><use xlink:href="#b5iAy2sDq" opacity="1" fill="#000000" fill-opacity="0"></use><g><use xlink:href="#b5iAy2sDq" opacity="1" fill-opacity="0" stroke="#000000" stroke-width="1" stroke-opacity="0"></use></g></g><g><use xlink:href="#a1KWPQ11Aj" opacity="1" fill="#000000" fill-opacity="0"></use><g><use xlink:href="#a1KWPQ11Aj" opacity="1" fill-opacity="0" stroke="#000000" stroke-width="1" stroke-opacity="0"></use></g></g><g><use xlink:href="#a19L6cevi3" opacity="1" fill="#000000" fill-opacity="0"></use><g><use xlink:href="#a19L6cevi3" opacity="1" fill-opacity="0" stroke="#000000" stroke-width="1" stroke-opacity="0"></use></g></g><g><use xlink:href="#bfXPTeuT5" opacity="1" fill="#454547" fill-opacity="1"></use><g><use xlink:href="#bfXPTeuT5" opacity="1" fill-opacity="0" stroke="#000000" stroke-width="1" stroke-opacity="0"></use></g></g><g><use xlink:href="#i2SnDOPYgb" opacity="1" fill="#000000" fill-opacity="0"></use><g><use xlink:href="#i2SnDOPYgb" opacity="1" fill-opacity="0" stroke="#000000" stroke-width="1" stroke-opacity="0"></use></g></g><g><use xlink:href="#b6Z5THgnWy" opacity="1" fill="#000000" fill-opacity="0"></use><g><use xlink:href="#b6Z5THgnWy" opacity="1" fill-opacity="0" stroke="#000000" stroke-width="1" stroke-opacity="0"></use></g></g><g><use xlink:href="#cfNuXuArF" opacity="1" fill="#000000" fill-opacity="0"></use><g><use xlink:href="#cfNuXuArF" opacity="1" fill-opacity="0" stroke="#000000" stroke-width="1" stroke-opacity="0"></use></g></g></g></svg>