<?xml version="1.0" encoding="UTF-8" standalone="no"?>
<!DOCTYPE svg PUBLIC "-//W3C//DTD SVG 1.1//EN" "http://www.w3.org/Graphics/SVG/1.1/DTD/svg11.dtd">
<svg version="1.1" xmlns="http://www.w3.org/2000/svg" xmlns:xlink="http://www.w3.org/1999/xlink" preserveAspectRatio="xMidYMid meet" viewBox="113.14 123.19 81.55 85.89000000000004" width="77.55" height="81.89"><defs><path d="M180.76 150.3C180.76 164.72 169.07 176.41 154.65 176.41C140.23 176.41 128.54 164.72 128.54 150.3C128.54 135.88 140.23 124.19 154.65 124.19C169.07 124.19 180.76 135.88 180.76 150.3" id="a2RMCrJcDB"></path><path d="M180.76 150.3C180.76 164.72 169.07 176.41 154.65 176.41C140.23 176.41 128.54 164.72 128.54 150.3C128.54 135.88 140.23 124.19 154.65 124.19C169.07 124.19 180.76 135.88 180.76 150.3" id="a1pRXKE4a3"></path><path d="M180.76 150.3C180.76 164.72 169.07 176.41 154.65 176.41C140.23 176.41 128.54 164.72 128.54 150.3C128.54 135.88 140.23 124.19 154.65 124.19C169.07 124.19 180.76 135.88 180.76 150.3" id="a1CuPeSJZM"></path><path d="M180.76 150.3C180.76 164.72 169.07 176.41 154.65 176.41C140.23 176.41 128.54 164.72 128.54 150.3C128.54 135.88 140.23 124.19 154.65 124.19C169.07 124.19 180.76 135.88 180.76 150.3" id="b5X4DfbADy"></path><path d="M154.3 167.97C146.42 167.97 140.13 165.64 135.61 161.04C128.29 153.57 128.39 142.92 128.4 142.47C128.42 141.33 129.36 140.48 130.49 140.45C131.62 140.47 132.52 141.41 132.51 142.54C132.5 142.67 132.45 151.99 138.57 158.19C142.28 161.96 147.58 163.87 154.3 163.87C160.96 163.87 166.05 161.99 169.42 158.28C175.01 152.13 174.19 142.8 174.18 142.71C174.07 141.58 174.9 140.58 176.02 140.47C177.13 140.36 178.15 141.18 178.26 142.3C178.31 142.75 179.3 153.49 172.49 161.01C168.31 165.63 162.19 167.97 154.3 167.97" id="a3AZQk1Dt8"></path><path d="M154.3 167.97C146.42 167.97 140.13 165.64 135.61 161.04C128.29 153.57 128.39 142.92 128.4 142.47C128.42 141.33 129.36 140.48 130.49 140.45C131.62 140.47 132.52 141.41 132.51 142.54C132.5 142.67 132.45 151.99 138.57 158.19C142.28 161.96 147.58 163.87 154.3 163.87C160.96 163.87 166.05 161.99 169.42 158.28C175.01 152.13 174.19 142.8 174.18 142.71C174.07 141.58 174.9 140.58 176.02 140.47C177.13 140.36 178.15 141.18 178.26 142.3C178.31 142.75 179.3 153.49 172.49 161.01C168.31 165.63 162.19 167.97 154.3 167.97" id="c6SuLZsQdt"></path><path d="M154.3 167.97C146.42 167.97 140.13 165.64 135.61 161.04C128.29 153.57 128.39 142.92 128.4 142.47C128.42 141.33 129.36 140.48 130.49 140.45C131.62 140.47 132.52 141.41 132.51 142.54C132.5 142.67 132.45 151.99 138.57 158.19C142.28 161.96 147.58 163.87 154.3 163.87C160.96 163.87 166.05 161.99 169.42 158.28C175.01 152.13 174.19 142.8 174.18 142.71C174.07 141.58 174.9 140.58 176.02 140.47C177.13 140.36 178.15 141.18 178.26 142.3C178.31 142.75 179.3 153.49 172.49 161.01C168.31 165.63 162.19 167.97 154.3 167.97" id="cAcOxFxs"></path><path d="M154.3 167.97C146.42 167.97 140.13 165.64 135.61 161.04C128.29 153.57 128.39 142.92 128.4 142.47C128.42 141.33 129.36 140.48 130.49 140.45C131.62 140.47 132.52 141.41 132.51 142.54C132.5 142.67 132.45 151.99 138.57 158.19C142.28 161.96 147.58 163.87 154.3 163.87C160.96 163.87 166.05 161.99 169.42 158.28C175.01 152.13 174.19 142.8 174.18 142.71C174.07 141.58 174.9 140.58 176.02 140.47C177.13 140.36 178.15 141.18 178.26 142.3C178.31 142.75 179.3 153.49 172.49 161.01C168.31 165.63 162.19 167.97 154.3 167.97" id="e2FJuRdAOK"></path><path d="M147.48 206.08C146.38 206.08 145.47 205.2 145.43 204.09C145.07 192.06 150.04 186.54 152.24 184.69C152.24 182.82 152.24 167.8 152.24 165.92C152.24 164.79 153.16 163.87 154.29 163.87C155.43 163.87 156.35 164.79 156.35 165.92C156.35 167.32 156.35 174.31 156.35 186.89C155.74 187.25 155.4 187.45 155.34 187.49C155.1 187.63 149.16 191.47 149.54 203.96C149.57 205.1 148.68 206.04 147.55 206.08C147.52 206.08 147.5 206.08 147.48 206.08" id="g2qvT0Ow47"></path><path d="M147.48 206.08C146.38 206.08 145.47 205.2 145.43 204.09C145.07 192.06 150.04 186.54 152.24 184.69C152.24 182.82 152.24 167.8 152.24 165.92C152.24 164.79 153.16 163.87 154.29 163.87C155.43 163.87 156.35 164.79 156.35 165.92C156.35 167.32 156.35 174.31 156.35 186.89C155.74 187.25 155.4 187.45 155.34 187.49C155.1 187.63 149.16 191.47 149.54 203.96C149.57 205.1 148.68 206.04 147.55 206.08C147.52 206.08 147.5 206.08 147.48 206.08" id="b1Y1D1BPsv"></path><path d="M147.48 206.08C146.38 206.08 145.47 205.2 145.43 204.09C145.07 192.06 150.04 186.54 152.24 184.69C152.24 182.82 152.24 167.8 152.24 165.92C152.24 164.79 153.16 163.87 154.29 163.87C155.43 163.87 156.35 164.79 156.35 165.92C156.35 167.32 156.35 174.31 156.35 186.89C155.74 187.25 155.4 187.45 155.34 187.49C155.1 187.63 149.16 191.47 149.54 203.96C149.57 205.1 148.68 206.04 147.55 206.08C147.52 206.08 147.5 206.08 147.48 206.08" id="b141kjjoiU"></path><path d="M147.48 206.08C146.38 206.08 145.47 205.2 145.43 204.09C145.07 192.06 150.04 186.54 152.24 184.69C152.24 182.82 152.24 167.8 152.24 165.92C152.24 164.79 153.16 163.87 154.29 163.87C155.43 163.87 156.35 164.79 156.35 165.92C156.35 167.32 156.35 174.31 156.35 186.89C155.74 187.25 155.4 187.45 155.34 187.49C155.1 187.63 149.16 191.47 149.54 203.96C149.57 205.1 148.68 206.04 147.55 206.08C147.52 206.08 147.5 206.08 147.48 206.08" id="baNEYmt4E"></path><path d="M161.11 206.08C159.97 206.08 159.06 205.16 159.06 204.03C159.06 189.35 153.89 187.73 153.83 187.72C152.72 187.51 152.03 186.45 152.24 185.33C152.45 184.22 153.56 183.5 154.67 183.7C155.54 183.86 163.16 185.82 163.16 204.03C163.16 205.16 162.24 206.08 161.11 206.08" id="d6NcBIrWJ"></path><path d="M161.11 206.08C159.97 206.08 159.06 205.16 159.06 204.03C159.06 189.35 153.89 187.73 153.83 187.72C152.72 187.51 152.03 186.45 152.24 185.33C152.45 184.22 153.56 183.5 154.67 183.7C155.54 183.86 163.16 185.82 163.16 204.03C163.16 205.16 162.24 206.08 161.11 206.08" id="b2NIAMeFqK"></path><path d="M161.11 206.08C159.97 206.08 159.06 205.16 159.06 204.03C159.06 189.35 153.89 187.73 153.83 187.72C152.72 187.51 152.03 186.45 152.24 185.33C152.45 184.22 153.56 183.5 154.67 183.7C155.54 183.86 163.16 185.82 163.16 204.03C163.16 205.16 162.24 206.08 161.11 206.08" id="bC4E7rLxL"></path><path d="M161.11 206.08C159.97 206.08 159.06 205.16 159.06 204.03C159.06 189.35 153.89 187.73 153.83 187.72C152.72 187.51 152.03 186.45 152.24 185.33C152.45 184.22 153.56 183.5 154.67 183.7C155.54 183.86 163.16 185.82 163.16 204.03C163.16 205.16 162.24 206.08 161.11 206.08" id="eaZJyrGSj"></path><path d="M123.43 152.43C122.29 152.43 121.38 151.51 121.38 150.38C121.38 148.17 121.38 130.46 121.38 128.24C121.38 127.11 122.29 126.19 123.43 126.19C124.56 126.19 125.48 127.11 125.48 128.24C125.48 130.46 125.48 148.17 125.48 150.38C125.48 151.51 124.56 152.43 123.43 152.43" id="axwpPBucg"></path><path d="M123.43 152.43C122.29 152.43 121.38 151.51 121.38 150.38C121.38 148.17 121.38 130.46 121.38 128.24C121.38 127.11 122.29 126.19 123.43 126.19C124.56 126.19 125.48 127.11 125.48 128.24C125.48 130.46 125.48 148.17 125.48 150.38C125.48 151.51 124.56 152.43 123.43 152.43" id="b1P7cqSO9n"></path><path d="M123.43 152.43C122.29 152.43 121.38 151.51 121.38 150.38C121.38 148.17 121.38 130.46 121.38 128.24C121.38 127.11 122.29 126.19 123.43 126.19C124.56 126.19 125.48 127.11 125.48 128.24C125.48 130.46 125.48 148.17 125.48 150.38C125.48 151.51 124.56 152.43 123.43 152.43" id="a2RVoVYKbk"></path><path d="M123.43 152.43C122.29 152.43 121.38 151.51 121.38 150.38C121.38 148.17 121.38 130.46 121.38 128.24C121.38 127.11 122.29 126.19 123.43 126.19C124.56 126.19 125.48 127.11 125.48 128.24C125.48 130.46 125.48 148.17 125.48 150.38C125.48 151.51 124.56 152.43 123.43 152.43" id="aawoxX8G5"></path><path d="M116.19 150.3C115.06 150.3 114.14 149.39 114.14 148.25C114.14 146.46 114.14 132.16 114.14 130.37C114.14 129.24 115.06 128.32 116.19 128.32C117.32 128.32 118.24 129.24 118.24 130.37C118.24 132.16 118.24 146.46 118.24 148.25C118.24 149.39 117.32 150.3 116.19 150.3" id="b9EqiYvlj"></path><path d="M116.19 150.3C115.06 150.3 114.14 149.39 114.14 148.25C114.14 146.46 114.14 132.16 114.14 130.37C114.14 129.24 115.06 128.32 116.19 128.32C117.32 128.32 118.24 129.24 118.24 130.37C118.24 132.16 118.24 146.46 118.24 148.25C118.24 149.39 117.32 150.3 116.19 150.3" id="b3pesxtSID"></path><path d="M116.19 150.3C115.06 150.3 114.14 149.39 114.14 148.25C114.14 146.46 114.14 132.16 114.14 130.37C114.14 129.24 115.06 128.32 116.19 128.32C117.32 128.32 118.24 129.24 118.24 130.37C118.24 132.16 118.24 146.46 118.24 148.25C118.24 149.39 117.32 150.3 116.19 150.3" id="abFh16QXe"></path><path d="M116.19 150.3C115.06 150.3 114.14 149.39 114.14 148.25C114.14 146.46 114.14 132.16 114.14 130.37C114.14 129.24 115.06 128.32 116.19 128.32C117.32 128.32 118.24 129.24 118.24 130.37C118.24 132.16 118.24 146.46 118.24 148.25C118.24 149.39 117.32 150.3 116.19 150.3" id="b3r0FPLUvC"></path><path d="M182.4 152.43C181.26 152.43 180.34 151.51 180.34 150.38C180.34 148.17 180.34 130.46 180.34 128.24C180.34 127.11 181.26 126.19 182.4 126.19C183.53 126.19 184.45 127.11 184.45 128.24C184.45 130.46 184.45 148.17 184.45 150.38C184.45 151.51 183.53 152.43 182.4 152.43" id="bFWYSeLoe"></path><path d="M182.4 152.43C181.26 152.43 180.34 151.51 180.34 150.38C180.34 148.17 180.34 130.46 180.34 128.24C180.34 127.11 181.26 126.19 182.4 126.19C183.53 126.19 184.45 127.11 184.45 128.24C184.45 130.46 184.45 148.17 184.45 150.38C184.45 151.51 183.53 152.43 182.4 152.43" id="d1yqqQ2LY"></path><path d="M182.4 152.43C181.26 152.43 180.34 151.51 180.34 150.38C180.34 148.17 180.34 130.46 180.34 128.24C180.34 127.11 181.26 126.19 182.4 126.19C183.53 126.19 184.45 127.11 184.45 128.24C184.45 130.46 184.45 148.17 184.45 150.38C184.45 151.51 183.53 152.43 182.4 152.43" id="b16lqrxn79"></path><path d="M182.4 152.43C181.26 152.43 180.34 151.51 180.34 150.38C180.34 148.17 180.34 130.46 180.34 128.24C180.34 127.11 181.26 126.19 182.4 126.19C183.53 126.19 184.45 127.11 184.45 128.24C184.45 130.46 184.45 148.17 184.45 150.38C184.45 151.51 183.53 152.43 182.4 152.43" id="hIeu16KRI"></path><path d="M189.63 150.3C188.5 150.3 187.58 149.39 187.58 148.25C187.58 146.46 187.58 132.16 187.58 130.37C187.58 129.24 188.5 128.32 189.63 128.32C190.77 128.32 191.69 129.24 191.69 130.37C191.69 132.16 191.69 146.46 191.69 148.25C191.69 149.39 190.77 150.3 189.63 150.3" id="a16VGmrNTG"></path><path d="M189.63 150.3C188.5 150.3 187.58 149.39 187.58 148.25C187.58 146.46 187.58 132.16 187.58 130.37C187.58 129.24 188.5 128.32 189.63 128.32C190.77 128.32 191.69 129.24 191.69 130.37C191.69 132.16 191.69 146.46 191.69 148.25C191.69 149.39 190.77 150.3 189.63 150.3" id="ovpmfogVz"></path><path d="M189.63 150.3C188.5 150.3 187.58 149.39 187.58 148.25C187.58 146.46 187.58 132.16 187.58 130.37C187.58 129.24 188.5 128.32 189.63 128.32C190.77 128.32 191.69 129.24 191.69 130.37C191.69 132.16 191.69 146.46 191.69 148.25C191.69 149.39 190.77 150.3 189.63 150.3" id="mlfnKH2cW"></path><path d="M189.63 150.3C188.5 150.3 187.58 149.39 187.58 148.25C187.58 146.46 187.58 132.16 187.58 130.37C187.58 129.24 188.5 128.32 189.63 128.32C190.77 128.32 191.69 129.24 191.69 130.37C191.69 132.16 191.69 146.46 191.69 148.25C191.69 149.39 190.77 150.3 189.63 150.3" id="a1wd1RBCkA"></path><path d="M189.63 141.36C145.57 141.36 121.09 141.36 116.19 141.36C115.06 141.36 114.14 140.45 114.14 139.31C114.14 138.18 115.06 137.26 116.19 137.26C123.53 137.26 182.29 137.26 189.63 137.26C190.77 137.26 191.69 138.18 191.69 139.31C191.69 140.45 190.77 141.36 189.63 141.36" id="fjVu4qPnq"></path><path d="M189.63 141.36C145.57 141.36 121.09 141.36 116.19 141.36C115.06 141.36 114.14 140.45 114.14 139.31C114.14 138.18 115.06 137.26 116.19 137.26C123.53 137.26 182.29 137.26 189.63 137.26C190.77 137.26 191.69 138.18 191.69 139.31C191.69 140.45 190.77 141.36 189.63 141.36" id="a6dEbg6Rq2"></path><path d="M189.63 141.36C145.57 141.36 121.09 141.36 116.19 141.36C115.06 141.36 114.14 140.45 114.14 139.31C114.14 138.18 115.06 137.26 116.19 137.26C123.53 137.26 182.29 137.26 189.63 137.26C190.77 137.26 191.69 138.18 191.69 139.31C191.69 140.45 190.77 141.36 189.63 141.36" id="d2AOO3UXb"></path><path d="M189.63 141.36C145.57 141.36 121.09 141.36 116.19 141.36C115.06 141.36 114.14 140.45 114.14 139.31C114.14 138.18 115.06 137.26 116.19 137.26C123.53 137.26 182.29 137.26 189.63 137.26C190.77 137.26 191.69 138.18 191.69 139.31C191.69 140.45 190.77 141.36 189.63 141.36" id="a3ZpOq2QPz"></path><path d="M161.95 153.26C161.95 157.48 158.52 160.91 154.29 160.91C150.07 160.91 146.64 157.48 146.64 153.26C146.64 149.03 150.07 145.6 154.29 145.6C158.52 145.6 161.95 149.03 161.95 153.26" id="a789uaCUWl"></path><path d="M161.95 153.26C161.95 157.48 158.52 160.91 154.29 160.91C150.07 160.91 146.64 157.48 146.64 153.26C146.64 149.03 150.07 145.6 154.29 145.6C158.52 145.6 161.95 149.03 161.95 153.26" id="b1r9et5e8B"></path><path d="M161.95 153.26C161.95 157.48 158.52 160.91 154.29 160.91C150.07 160.91 146.64 157.48 146.64 153.26C146.64 149.03 150.07 145.6 154.29 145.6C158.52 145.6 161.95 149.03 161.95 153.26" id="am93nUGSL"></path><path d="M161.95 153.26C161.95 157.48 158.52 160.91 154.29 160.91C150.07 160.91 146.64 157.48 146.64 153.26C146.64 149.03 150.07 145.6 154.29 145.6C158.52 145.6 161.95 149.03 161.95 153.26" id="b1sd5afMQP"></path></defs><g><g><use xlink:href="#a2RMCrJcDB" opacity="1" fill="#a9c0e3" fill-opacity="1"></use><g><use xlink:href="#a2RMCrJcDB" opacity="1" fill-opacity="0" stroke="#000000" stroke-width="1" stroke-opacity="0"></use></g></g><g><use xlink:href="#a1pRXKE4a3" opacity="1" fill="#000000" fill-opacity="0"></use><g><use xlink:href="#a1pRXKE4a3" opacity="1" fill-opacity="0" stroke="#000000" stroke-width="1" stroke-opacity="0"></use></g></g><g><use xlink:href="#a1CuPeSJZM" opacity="1" fill="#000000" fill-opacity="0"></use><g><use xlink:href="#a1CuPeSJZM" opacity="1" fill-opacity="0" stroke="#000000" stroke-width="1" stroke-opacity="0"></use></g></g><g><use xlink:href="#b5X4DfbADy" opacity="1" fill="#000000" fill-opacity="0"></use><g><use xlink:href="#b5X4DfbADy" opacity="1" fill-opacity="0" stroke="#000000" stroke-width="1" stroke-opacity="0"></use></g></g><g><use xlink:href="#a3AZQk1Dt8" opacity="1" fill="#454547" fill-opacity="1"></use><g><use xlink:href="#a3AZQk1Dt8" opacity="1" fill-opacity="0" stroke="#000000" stroke-width="1" stroke-opacity="0"></use></g></g><g><use xlink:href="#c6SuLZsQdt" opacity="1" fill="#000000" fill-opacity="0"></use><g><use xlink:href="#c6SuLZsQdt" opacity="1" fill-opacity="0" stroke="#000000" stroke-width="1" stroke-opacity="0"></use></g></g><g><use xlink:href="#cAcOxFxs" opacity="1" fill="#000000" fill-opacity="0"></use><g><use xlink:href="#cAcOxFxs" opacity="1" fill-opacity="0" stroke="#000000" stroke-width="1" stroke-opacity="0"></use></g></g><g><use xlink:href="#e2FJuRdAOK" opacity="1" fill="#000000" fill-opacity="0"></use><g><use xlink:href="#e2FJuRdAOK" opacity="1" fill-opacity="0" stroke="#000000" stroke-width="1" stroke-opacity="0"></use></g></g><g><use xlink:href="#g2qvT0Ow47" opacity="1" fill="#454547" fill-opacity="1"></use><g><use xlink:href="#g2qvT0Ow47" opacity="1" fill-opacity="0" stroke="#000000" stroke-width="1" stroke-opacity="0"></use></g></g><g><use xlink:href="#b1Y1D1BPsv" opacity="1" fill="#000000" fill-opacity="0"></use><g><use xlink:href="#b1Y1D1BPsv" opacity="1" fill-opacity="0" stroke="#000000" stroke-width="1" stroke-opacity="0"></use></g></g><g><use xlink:href="#b141kjjoiU" opacity="1" fill="#000000" fill-opacity="0"></use><g><use xlink:href="#b141kjjoiU" opacity="1" fill-opacity="0" stroke="#000000" stroke-width="1" stroke-opacity="0"></use></g></g><g><use xlink:href="#baNEYmt4E" opacity="1" fill="#000000" fill-opacity="0"></use><g><use xlink:href="#baNEYmt4E" opacity="1" fill-opacity="0" stroke="#000000" stroke-width="1" stroke-opacity="0"></use></g></g><g><use xlink:href="#d6NcBIrWJ" opacity="1" fill="#454547" fill-opacity="1"></use><g><use xlink:href="#d6NcBIrWJ" opacity="1" fill-opacity="0" stroke="#000000" stroke-width="1" stroke-opacity="0"></use></g></g><g><use xlink:href="#b2NIAMeFqK" opacity="1" fill="#000000" fill-opacity="0"></use><g><use xlink:href="#b2NIAMeFqK" opacity="1" fill-opacity="0" stroke="#000000" stroke-width="1" stroke-opacity="0"></use></g></g><g><use xlink:href="#bC4E7rLxL" opacity="1" fill="#000000" fill-opacity="0"></use><g><use xlink:href="#bC4E7rLxL" opacity="1" fill-opacity="0" stroke="#000000" stroke-width="1" stroke-opacity="0"></use></g></g><g><use xlink:href="#eaZJyrGSj" opacity="1" fill="#000000" fill-opacity="0"></use><g><use xlink:href="#eaZJyrGSj" opacity="1" fill-opacity="0" stroke="#000000" stroke-width="1" stroke-opacity="0"></use></g></g><g><use xlink:href="#axwpPBucg" opacity="1" fill="#454547" fill-opacity="1"></use><g><use xlink:href="#axwpPBucg" opacity="1" fill-opacity="0" stroke="#000000" stroke-width="1" stroke-opacity="0"></use></g></g><g><use xlink:href="#b1P7cqSO9n" opacity="1" fill="#000000" fill-opacity="0"></use><g><use xlink:href="#b1P7cqSO9n" opacity="1" fill-opacity="0" stroke="#000000" stroke-width="1" stroke-opacity="0"></use></g></g><g><use xlink:href="#a2RVoVYKbk" opacity="1" fill="#000000" fill-opacity="0"></use><g><use xlink:href="#a2RVoVYKbk" opacity="1" fill-opacity="0" stroke="#000000" stroke-width="1" stroke-opacity="0"></use></g></g><g><use xlink:href="#aawoxX8G5" opacity="1" fill="#000000" fill-opacity="0"></use><g><use xlink:href="#aawoxX8G5" opacity="1" fill-opacity="0" stroke="#000000" stroke-width="1" stroke-opacity="0"></use></g></g><g><use xlink:href="#b9EqiYvlj" opacity="1" fill="#454547" fill-opacity="1"></use><g><use xlink:href="#b9EqiYvlj" opacity="1" fill-opacity="0" stroke="#000000" stroke-width="1" stroke-opacity="0"></use></g></g><g><use xlink:href="#b3pesxtSID" opacity="1" fill="#000000" fill-opacity="0"></use><g><use xlink:href="#b3pesxtSID" opacity="1" fill-opacity="0" stroke="#000000" stroke-width="1" stroke-opacity="0"></use></g></g><g><use xlink:href="#abFh16QXe" opacity="1" fill="#000000" fill-opacity="0"></use><g><use xlink:href="#abFh16QXe" opacity="1" fill-opacity="0" stroke="#000000" stroke-width="1" stroke-opacity="0"></use></g></g><g><use xlink:href="#b3r0FPLUvC" opacity="1" fill="#000000" fill-opacity="0"></use><g><use xlink:href="#b3r0FPLUvC" opacity="1" fill-opacity="0" stroke="#000000" stroke-width="1" stroke-opacity="0"></use></g></g><g><use xlink:href="#bFWYSeLoe" opacity="1" fill="#454547" fill-opacity="1"></use><g><use xlink:href="#bFWYSeLoe" opacity="1" fill-opacity="0" stroke="#000000" stroke-width="1" stroke-opacity="0"></use></g></g><g><use xlink:href="#d1yqqQ2LY" opacity="1" fill="#000000" fill-opacity="0"></use><g><use xlink:href="#d1yqqQ2LY" opacity="1" fill-opacity="0" stroke="#000000" stroke-width="1" stroke-opacity="0"></use></g></g><g><use xlink:href="#b16lqrxn79" opacity="1" fill="#000000" fill-opacity="0"></use><g><use xlink:href="#b16lqrxn79" opacity="1" fill-opacity="0" stroke="#000000" stroke-width="1" stroke-opacity="0"></use></g></g><g><use xlink:href="#hIeu16KRI" opacity="1" fill="#000000" fill-opacity="0"></use><g><use xlink:href="#hIeu16KRI" opacity="1" fill-opacity="0" stroke="#000000" stroke-width="1" stroke-opacity="0"></use></g></g><g><use xlink:href="#a16VGmrNTG" opacity="1" fill="#454547" fill-opacity="1"></use><g><use xlink:href="#a16VGmrNTG" opacity="1" fill-opacity="0" stroke="#000000" stroke-width="1" stroke-opacity="0"></use></g></g><g><use xlink:href="#ovpmfogVz" opacity="1" fill="#000000" fill-opacity="0"></use><g><use xlink:href="#ovpmfogVz" opacity="1" fill-opacity="0" stroke="#000000" stroke-width="1" stroke-opacity="0"></use></g></g><g><use xlink:href="#mlfnKH2cW" opacity="1" fill="#000000" fill-opacity="0"></use><g><use xlink:href="#mlfnKH2cW" opacity="1" fill-opacity="0" stroke="#000000" stroke-width="1" stroke-opacity="0"></use></g></g><g><use xlink:href="#a1wd1RBCkA" opacity="1" fill="#000000" fill-opacity="0"></use><g><use xlink:href="#a1wd1RBCkA" opacity="1" fill-opacity="0" stroke="#000000" stroke-width="1" stroke-opacity="0"></use></g></g><g><use xlink:href="#fjVu4qPnq" opacity="1" fill="#454547" fill-opacity="1"></use><g><use xlink:href="#fjVu4qPnq" opacity="1" fill-opacity="0" stroke="#000000" stroke-width="1" stroke-opacity="0"></use></g></g><g><use xlink:href="#a6dEbg6Rq2" opacity="1" fill="#000000" fill-opacity="0"></use><g><use xlink:href="#a6dEbg6Rq2" opacity="1" fill-opacity="0" stroke="#000000" stroke-width="1" stroke-opacity="0"></use></g></g><g><use xlink:href="#d2AOO3UXb" opacity="1" fill="#000000" fill-opacity="0"></use><g><use xlink:href="#d2AOO3UXb" opacity="1" fill-opacity="0" stroke="#000000" stroke-width="1" stroke-opacity="0"></use></g></g><g><use xlink:href="#a3ZpOq2QPz" opacity="1" fill="#000000" fill-opacity="0"></use><g><use xlink:href="#a3ZpOq2QPz" opacity="1" fill-opacity="0" stroke="#000000" stroke-width="1" stroke-opacity="0"></use></g></g><g><use xlink:href="#a789uaCUWl" opacity="1" fill="#454547" fill-opacity="1"></use><g><use xlink:href="#a789uaCUWl" opacity="1" fill-opacity="0" stroke="#000000" stroke-width="1" stroke-opacity="0"></use></g></g><g><use xlink:href="#b1r9et5e8B" opacity="1" fill="#000000" fill-opacity="0"></use><g><use xlink:href="#b1r9et5e8B" opacity="1" fill-opacity="0" stroke="#000000" stroke-width="1" stroke-opacity="0"></use></g></g><g><use xlink:href="#am93nUGSL" opacity="1" fill="#000000" fill-opacity="0"></use><g><use xlink:href="#am93nUGSL" opacity="1" fill-opacity="0" stroke="#000000" stroke-width="1" stroke-opacity="0"></use></g></g><g><use xlink:href="#b1sd5afMQP" opacity="1" fill="#000000" fill-opacity="0"></use><g><use xlink:href="#b1sd5afMQP" opacity="1" fill-opacity="0" stroke="#000000" stroke-width="1" stroke-opacity="0"></use></g></g></g></svg>